<?xml version="1.0" encoding="utf-8"?>
<!-- Generator: Adobe Illustrator 18.0.0, SVG Export Plug-In . SVG Version: 6.00 Build 0)  -->
<!DOCTYPE svg PUBLIC "-//W3C//DTD SVG 1.1//EN" "http://www.w3.org/Graphics/SVG/1.1/DTD/svg11.dtd">
<svg version="1.1" id="logo-full" xmlns="http://www.w3.org/2000/svg" xmlns:xlink="http://www.w3.org/1999/xlink" x="0px" y="0px"
	 viewBox="0.7 31.3 456.5 114.1" enable-background="new 0.7 31.3 456.5 114.1" xml:space="preserve">
<path fill="#537F7C" d="M386.6,140.6v4.6h-17.9h-7.4v-7.5c0-1,0.2-2,0.6-2.9c1.1-2.6,3.6-4.5,6.6-4.6h10.9h0.1
	c1.5-0.1,2.7-1.4,2.7-2.9c0-1.6-1.3-3-2.9-3h-17.9v-4.6h17.9c4.1,0,7.5,3.4,7.5,7.5c0,1-0.2,2-0.6,2.9c-0.3,0.8-0.9,1.6-1.5,2.2
	c-1.3,1.3-3.1,2.2-5.1,2.3h-0.1c0,0-0.1,0-0.1,0h-10.7c-1.5,0.1-2.7,1.4-2.7,2.9v2.9L386.6,140.6z"/>
<path fill="#537F7C" d="M406.4,119.6c4.6,0,8.2,3.7,8.2,8.2v9c0,4.6-3.7,8.2-8.2,8.2h-7.8c-4.6,0-8.2-3.7-8.2-8.2v-9
	c0-4.6,3.7-8.2,8.2-8.2H406.4z M398.6,124.2c-2,0-3.7,1.7-3.7,3.7v9c0,2,1.7,3.7,3.7,3.7h7.8c2,0,3.7-1.7,3.7-3.7v-9
	c0-2-1.7-3.7-3.7-3.7H398.6z"/>
<path fill="#537F7C" d="M443.6,140.6v4.6h-17.9h-7.4v-7.5c0-1,0.2-2,0.6-2.9c1.1-2.6,3.6-4.5,6.6-4.6h10.9h0.1
	c1.5-0.1,2.7-1.4,2.7-2.9c0-1.6-1.3-3-2.9-3h-17.9v-4.6h17.9c4.1,0,7.5,3.4,7.5,7.5c0,1-0.2,2-0.6,2.9c-0.3,0.8-0.9,1.6-1.5,2.2
	c-1.3,1.3-3.1,2.2-5.1,2.3h-0.1c0,0-0.1,0-0.1,0h-10.7c-1.5,0.1-2.7,1.4-2.7,2.9v2.9L443.6,140.6z"/>
<path fill="#537F7C" d="M456,128.1v17.3h-4.6v-17.7c-0.2-1.6-1.5-2.9-3.1-3.1c-0.1,0-0.3,0-0.4,0h-0.6V120h0.6h0.4v0
	c1.1,0.1,2.1,0.3,3.1,0.8c1.6,0.8,2.9,2.1,3.7,3.7c0.3,0.6,0.5,1.1,0.6,1.7c0.1,0.6,0.2,1.2,0.2,1.8L456,128.1z"/>
<path id="s_1_" fill="#8FBC33" d="M448.3,76.9v-0.3c0-2.4-2.1-4.5-4.5-4.5h-20c-2.4,0-4.5,2.1-4.5,4.5v0.3c0,2.4,2.1,4.5,4.5,4.5
	h17.7c4.6,0,8.7,2,11.5,5.1c0.2,0.2,0.4,0.4,0.6,0.6c2.1,2.7,3.5,6.2,3.5,9.9c0,8.6-7,15.6-15.6,15.6h-15.5c-8.6,0-15.6-7-15.6-15.6
	h8.8c0,3.7,3.1,6.7,6.7,6.7h15.5c3.7,0,6.8-3.1,6.8-6.7c0-3.7-3.1-6.7-6.8-6.7h-17.7c-3.6,0-6.8-1.4-9.2-3.7
	c-0.6-0.6-1.2-1.4-1.7-2.1c-1.5-2.1-2.4-4.7-2.4-7.5v-0.3c0-7.3,5.9-13.3,13.2-13.3h20c7.3,0,13.3,6,13.3,13.3v0.3L448.3,76.9z"/>
<path id="k" fill="#8FBC33" d="M390.9,83.1l21.4,29.6h-10.9l-17-23.6l-12.4,11.3v12.2h-8.8V63.2h8.8v25.3l7.3-6.7l6.6-6l13.7-12.6
	h13L390.9,83.1z"/>
<path id="c" fill="#8FBC33" d="M319,87.9c0,8.7,7.1,15.9,15.9,15.9h24.7v8.8h-24.7c-13.6,0-24.7-11-24.7-24.7s11-24.7,24.7-24.7
	h24.7V72h-24.7C326.2,72,319,79.2,319,87.9z"/>
<path id="a" fill="#8FBC33" d="M316.4,112.6h-9.9l-4.5-8.8l-10.8-21.1l-10.8,21.1l-4.5,8.8H266l4.5-8.8l20.7-40.5l20.7,40.5
	L316.4,112.6z"/>
<path id="h_1_" fill="#8FBC33" d="M265.2,63.2v49.3h-8.8V89.9h-31.7v22.6h-8.8V63.2h8.8v17.9h31.7V63.2H265.2z"/>
<path id="s" fill="#537F7C" d="M93.5,111.4v-6.6c5.5,2.7,10.5,3.9,15,3.9c1.8,0,3.7-0.4,5.4-1.1c1.8-0.7,3.1-1.8,3.9-3.1
	c0.9-1.4,1.4-2.8,1.4-4.4c0-1.8-0.6-3.6-1.8-5.2c-1.2-1.7-3.5-3.4-6.8-5.4l-3.5-2.1l-3.5-2.1c-6.3-3.7-9.4-8.3-9.4-13.8
	c0-4,1.4-7.4,4.2-10.2c2.8-2.8,7.1-4.1,13-4.1c3.8,0,7.4,0.6,11,1.7v6c-3.9-1.5-7.7-2.2-11.5-2.2c-2.9,0-5.4,0.8-7.1,2.4
	c-1.8,1.5-2.8,3.4-2.8,5.7c0,2.1,0.7,4,2.1,5.5c1.4,1.5,3.2,2.8,5.4,4l2.7,1.5l3.3,2.1l2.8,1.7c5.9,3.6,8.7,8.1,8.7,13.5
	c0,4.1-1.5,7.7-4.5,10.7c-3.1,2.9-7.8,4.4-14.5,4.4c-2.1,0-4.1-0.2-6.1-0.5C99.3,113.2,96.7,112.5,93.5,111.4L93.5,111.4z"/>
<path id="h" fill="#537F7C" d="M134.9,112.5V56.9h6.4v25.6c1.8-2.9,4-5.3,6.7-7c2.7-1.7,5.2-2.5,7.7-2.5c2.1,0,4.2,0.6,6,1.7
	c1.8,1.1,3.1,2.4,3.7,4c0.6,1.2,1,2.4,1.2,3.8c0.2,1.4,0.3,4.2,0.3,8.4v21.4h-6.3V90.2c0-3.7-0.2-6.2-0.5-7.3c-0.4-1.2-1-2.1-2-2.9
	c-1-0.8-2-1.2-3.1-1.2c-2.2,0-4.7,1.1-7.3,3.2c-2.5,2.1-4.7,4.8-6.4,8v22.4L134.9,112.5L134.9,112.5z"/>
<path id="e" fill="#537F7C" d="M208.3,109.9c-5.1,2.4-10,3.6-14.5,3.6c-3.4,0-6.6-0.9-9.3-2.5c-2.7-1.6-4.9-4.2-6.6-7.3
	c-1.7-3.2-2.4-6.7-2.4-10.3c0-3.5,0.8-6.8,2.4-10.1c1.5-3.2,3.7-5.8,6.6-7.5c2.8-1.8,5.9-2.8,9.4-2.8c4.6,0,8.2,1.7,11,4.9
	c2.8,3.2,4.1,8.3,4.1,15.1v1.4h-26.5c0,2.7,0.6,5.1,1.7,7.3c1.1,2.1,2.5,3.8,4.4,5c1.8,1.1,3.9,1.7,6.2,1.7c4.1,0,8.7-1.4,13.7-4.1
	v5.8H208.3z M182.8,89.6H202v-1c0-3.1-0.8-5.6-2.4-7.4c-1.5-1.8-3.6-2.8-6.2-2.8c-2.7,0-4.8,1-6.7,2.8
	C184.8,83.1,183.4,85.8,182.8,89.6L182.8,89.6z"/>
<path id="leaf-logo" fill="#8FBC33" d="M40,145.3c-4.3,0-7.8-3.5-7.8-7.8c0-3.6,2.5-6.6,5.8-7.5v-15.6c0-1-0.2-2-0.8-2.8
	c-2.9-3.8-4.1-5.1-5.5-6.6c-1.7-1.8-2.8-3-4.1-5.9H15.9C7.6,99,0.8,92.2,0.8,84V71c0-1.2,0.9-2.1,2.1-2.1h13
	C24.2,68.9,31,75.7,31,84v12.6c1.1,2.9,1.9,3.8,3.6,5.7c0.9,0.9,2,2.1,3.4,3.9l0-51.5c0-12.8,10.4-23.2,23.2-23.2h21
	c1.2,0,2.2,1,2.2,2.2v21c0,12.8-10.4,23.2-23.2,23.2H41.9v38.2c0.6-0.7,2.8-2.8,3.2-3.1c2.7-2.4,3.1-2.7,3.2-5.2l0,0v0v-8.1
	c0-5.6,4.6-10.1,10.1-10.1h8.1c1.1,0,2.1,0.9,2.1,2.1v8.1c0,5.6-4.6,10.1-10.1,10.1H52c-0.5,2.8-2,4.1-4.3,6.2
	c-3.3,2.7-5.7,6.1-5.8,8.7v5.4c3.3,0.9,5.8,3.9,5.8,7.5C47.8,141.8,44.3,145.3,40,145.3z M40,133.6c-2.1,0-3.9,1.7-3.9,3.9
	c0,2.1,1.7,3.9,3.9,3.9c2.1,0,3.9-1.7,3.9-3.9C43.9,135.3,42.1,133.6,40,133.6z M52.3,105.8h6.2c3.4,0,6.2-2.8,6.2-6.2v-6.2h-6.2
	c-3.4,0-6.2,2.8-6.2,6.2V105.8z M4.7,72.9V84c0,6.1,5,11.1,11.1,11.1H27V84c0-6.1-5-11.1-11.1-11.1H4.7z M41.9,73.9h19.3
	c10.6,0,19.3-8.7,19.3-19.3V35.4H61.2c-10.6,0-19.3,8.7-19.3,19.3l0,22.1L41.9,73.9z M53.6,108.3c-2.2,0-4.1-1.8-4.1-4.1
	c0-2.2,1.8-4.1,4.1-4.1c2.2,0,4.1,1.8,4.1,4.1C57.7,106.5,55.9,108.3,53.6,108.3z M53.6,103c-0.7,0-1.3,0.6-1.3,1.3s0.6,1.3,1.3,1.3
	c0.7,0,1.3-0.6,1.3-1.3C54.9,103.6,54.3,103,53.6,103z M25.3,97.8c-2.7,0-4.8-2.2-4.8-4.8s2.2-4.8,4.8-4.8s4.8,2.2,4.8,4.8
	C30.1,95.7,27.9,97.8,25.3,97.8z M25.3,91.3c-0.9,0-1.7,0.7-1.7,1.7c0,0.9,0.7,1.7,1.7,1.7c0.9,0,1.7-0.7,1.7-1.7
	C27,92.1,26.2,91.3,25.3,91.3z M43.8,77.1c-3.2,0-5.7-2.6-5.7-5.7c0-3.2,2.6-5.7,5.7-5.7s5.7,2.6,5.7,5.7
	C49.6,74.6,47,77.1,43.8,77.1z M43.8,69.6c-1,0-1.8,0.8-1.8,1.8s0.8,1.8,1.8,1.8c1,0,1.8-0.8,1.8-1.8S44.8,69.6,43.8,69.6z"/>
</svg>
